<svg version="1.1" viewBox="0.0 0.0 960.0 600.0" fill="none" stroke="none" stroke-linecap="square" stroke-miterlimit="10" xmlns:xlink="http://www.w3.org/1999/xlink" xmlns="http://www.w3.org/2000/svg"><clipPath id="p.0"><path d="m0 0l960.0 0l0 600.0l-960.0 0l0 -600.0z" clip-rule="nonzero"/></clipPath><g clip-path="url(#p.0)"><path fill="#000000" fill-opacity="0.0" d="m0 0l960.0 0l0 600.0l-960.0 0z" fill-rule="evenodd"/><path fill="#78b5bf" d="m320.6404 323.0212l34.857788 -61.590515l65.65451 0l34.857788 61.590515l-34.857788 61.590515l-65.65451 0z" fill-rule="evenodd"/><path fill="#87a2e8" d="m420.1601 276.95276l33.681305 -59.51178l68.00748 0l33.681335 59.51178l-33.681335 59.51178l-68.00748 0z" fill-rule="evenodd"/><path fill="#000000" fill-opacity="0.0" d="m412.31497 161.12599l31.87201 -56.31494l64.41345 0l31.871979 56.31494l-31.871979 56.314926l-64.41345 0z" fill-rule="evenodd"/><path stroke="#06733c" stroke-width="8.0" stroke-linejoin="round" stroke-linecap="butt" d="m412.31497 161.12599l31.87201 -56.31494l64.41345 0l31.871979 56.31494l-31.871979 56.314926l-64.41345 0z" fill-rule="evenodd"/><path fill="#87a2e8" d="m520.0 100.80052l33.681274 -59.51178l68.00751 0l33.681274 59.51178l-33.681274 59.51178l-68.00751 0z" fill-rule="evenodd"/><path fill="#000000" fill-opacity="0.0" d="m507.8399 100.79265l33.681274 -59.51178l68.00751 0l33.681274 59.51178l-33.681274 59.51178l-68.00751 0z" fill-rule="evenodd"/><path stroke="#4e6dba" stroke-width="8.0" stroke-linejoin="round" stroke-linecap="butt" d="m507.8399 100.79265l33.681274 -59.51178l68.00751 0l33.681274 59.51178l-33.681274 59.51178l-68.00751 0z" fill-rule="evenodd"/><path fill="#000000" fill-opacity="0.0" d="m412.31497 274.7034l33.681305 -59.511765l60.79486 0l33.681274 59.511765l-33.681274 59.51181l-60.79486 0z" fill-rule="evenodd"/><path stroke="#4e6dba" stroke-width="8.0" stroke-linejoin="round" stroke-linecap="butt" d="m412.31497 274.7034l33.681305 -59.511765l60.79486 0l33.681274 59.511765l-33.681274 59.51181l-60.79486 0z" fill-rule="evenodd"/><path fill="#000000" fill-opacity="0.0" d="m507.8399 325.09973l31.87201 -56.31494l71.62604 0l31.87201 56.31494l-31.87201 56.31494l-71.62604 0z" fill-rule="evenodd"/><path stroke="#0e7587" stroke-width="8.0" stroke-linejoin="round" stroke-linecap="butt" d="m507.8399 325.09973l31.87201 -56.31494l71.62604 0l31.87201 56.31494l-31.87201 56.31494l-71.62604 0z" fill-rule="evenodd"/><path fill="#000000" fill-opacity="0.0" d="m307.83466 328.2966l33.681305 -59.51181l68.00745 0l33.681305 59.51181l-33.681305 59.51178l-68.00745 0z" fill-rule="evenodd"/><path stroke="#0e7587" stroke-width="8.0" stroke-linejoin="round" stroke-linecap="butt" d="m307.83466 328.2966l33.681305 -59.51181l68.00745 0l33.681305 59.51181l-33.681305 59.51178l-68.00745 0z" fill-rule="evenodd"/><path fill="#8cbaa3" d="m624.31757 267.3491l30.695557 -54.236206l73.979004 0l30.695557 54.236206l-30.695557 54.236176l-73.979004 0z" fill-rule="evenodd"/><path fill="#000000" fill-opacity="0.0" d="m612.56696 269.42783l31.87201 -56.31494l64.41345 0l31.87201 56.31494l-31.87201 56.31494l-64.41345 0z" fill-rule="evenodd"/><path stroke="#06733c" stroke-width="8.0" stroke-linejoin="round" stroke-linecap="butt" d="m612.56696 269.42783l31.87201 -56.31494l64.41345 0l31.87201 56.31494l-31.87201 56.31494l-64.41345 0z" fill-rule="evenodd"/><path fill="#000000" fill-opacity="0.0" d="m212.06299 271.67584l31.872025 -56.314926l64.41344 0l31.87201 56.314926l-31.87201 56.31494l-64.41344 0z" fill-rule="evenodd"/><path stroke="#06733c" stroke-width="8.0" stroke-linejoin="round" stroke-linecap="butt" d="m212.06299 271.67584l31.872025 -56.314926l64.41344 0l31.87201 56.314926l-31.87201 56.31494l-64.41344 0z" fill-rule="evenodd"/><path fill="#000000" fill-opacity="0.0" d="m173.76378 414.71915l612.4724 0l0 161.29135l-612.4724 0z" fill-rule="evenodd"/><path fill="#06733c" d="m378.89453 465.00354q0 10.9375 -3.828125 19.015625q-3.828125 8.0625 -11.078125 12.28125q-7.25 4.21875 -17.09375 4.21875l-17.609375 0l12.0625 -57.109375l15.46875 0q10.546875 0 16.3125 5.59375q5.765625 5.578125 5.765625 16.0zm-31.453125 25.515625q5.78125 0 10.078125 -2.96875q4.296875 -2.96875 6.71875 -8.734375q2.421875 -5.765625 2.421875 -13.1875q0 -6.015625 -2.828125 -9.15625q-2.828125 -3.140625 -8.140625 -3.140625l-4.5 0l-7.890625 37.1875l4.140625 0zm61.09375 -26.015625q-3.4375 0 -6.484375 3.125q-3.046875 3.125 -3.984375 7.609375l1.765625 0q6.046875 0 9.421875 -1.890625q3.390625 -1.890625 3.390625 -5.140625q0 -3.703125 -4.109375 -3.703125zm-6.40625 36.796875q-8.203125 0 -12.734375 -4.40625q-4.53125 -4.421875 -4.53125 -12.46875q0 -8.09375 3.21875 -14.75q3.234375 -6.65625 8.734375 -10.15625q5.515625 -3.5 12.46875 -3.5q6.90625 0 10.765625 3.1875q3.875 3.1875 3.875 8.734375q0 7.296875 -6.53125 11.265625q-6.515625 3.96875 -18.625 3.96875l-1.984375 0l-0.078125 0.8125l0 0.78125q0 3.5625 2.0 5.609375q2.015625 2.046875 5.765625 2.046875q3.40625 0 6.171875 -0.734375q2.78125 -0.75 6.71875 -2.625l0 8.875q-6.71875 3.359375 -15.234375 3.359375zm46.101562 -0.78125l-11.921875 0l9.921875 -47.03125l-13.75 0l2.15625 -10.078125l39.453125 0l-2.15625 10.078125l-13.78125 0l-9.921875 47.03125zm53.039062 -44.5q2.3125 0 3.75 0.4375l-2.578125 11.328125q-1.75 -0.625 -3.90625 -0.625q-4.53125 0 -7.953125 3.578125q-3.40625 3.5625 -4.859375 10.25l-4.140625 19.53125l-11.75 0l9.25 -43.671875l8.984375 0l-0.8125 8.078125l0.234375 0q5.734375 -8.90625 13.78125 -8.90625zm16.640625 45.28125q-5.734375 0 -9.046875 -4.15625q-3.296875 -4.171875 -3.296875 -11.671875q0 -7.734375 2.8125 -14.734375q2.8125 -7.015625 7.375 -10.859375q4.578125 -3.859375 10.046875 -3.859375q3.796875 0 6.546875 1.640625q2.75 1.640625 4.28125 4.765625l0.3125 0l2.21875 -5.578125l9.0625 0l-9.296875 43.671875l-8.9375 0l0.546875 -5.671875l-0.15625 0q-5.234375 6.453125 -12.46875 6.453125zm4.609375 -9.5q2.703125 0 5.203125 -2.609375q2.5 -2.625 4.015625 -7.09375q1.53125 -4.46875 1.53125 -10.140625q0 -2.765625 -1.515625 -4.578125q-1.5 -1.828125 -3.953125 -1.828125q-2.65625 0 -5.0625 2.8125q-2.40625 2.8125 -3.828125 7.421875q-1.421875 4.609375 -1.421875 9.140625q0 3.4375 1.296875 5.15625q1.3125 1.71875 3.734375 1.71875zm46.835938 9.5q-7.84375 0 -12.046875 -4.203125q-4.203125 -4.203125 -4.203125 -11.859375q0 -8.28125 2.90625 -15.046875q2.921875 -6.78125 8.1875 -10.46875q5.28125 -3.703125 12.03125 -3.703125q7.109375 0 12.8125 2.8125l-3.59375 8.953125q-2.109375 -0.90625 -4.140625 -1.5625q-2.03125 -0.671875 -4.609375 -0.671875q-3.3125 0 -6.0 2.5q-2.671875 2.5 -4.171875 6.859375q-1.5 4.359375 -1.5 9.359375q0 3.75 1.765625 5.640625q1.78125 1.890625 4.953125 1.890625q2.96875 0 5.5 -0.90625q2.546875 -0.921875 5.234375 -2.296875l0 9.609375q-5.9375 3.09375 -13.125 3.09375zm46.054688 -36.796875q-3.4375 0 -6.484375 3.125q-3.046875 3.125 -3.984375 7.609375l1.765625 0q6.046875 0 9.421875 -1.890625q3.390625 -1.890625 3.390625 -5.140625q0 -3.703125 -4.109375 -3.703125zm-6.40625 36.796875q-8.203125 0 -12.734375 -4.40625q-4.53125 -4.421875 -4.53125 -12.46875q0 -8.09375 3.21875 -14.75q3.234375 -6.65625 8.734375 -10.15625q5.515625 -3.5 12.46875 -3.5q6.90625 0 10.765625 3.1875q3.875 3.1875 3.875 8.734375q0 7.296875 -6.53125 11.265625q-6.515625 3.96875 -18.625 3.96875l-1.984375 0l-0.078125 0.8125l0 0.78125q0 3.5625 2.0 5.609375q2.015625 2.046875 5.765625 2.046875q3.40625 0 6.171875 -0.734375q2.78125 -0.75 6.71875 -2.625l0 8.875q-6.71875 3.359375 -15.234375 3.359375z" fill-rule="nonzero"/><path fill="#000000" fill-opacity="0.0" d="m507.8399 214.54724l30.695496 -54.23619l73.979065 0l30.695496 54.23619l-30.695496 54.236206l-73.979065 0z" fill-rule="evenodd"/><path stroke="#0e7587" stroke-width="8.0" stroke-linejoin="round" stroke-linecap="butt" d="m507.8399 214.54724l30.695496 -54.23619l73.979065 0l30.695496 54.23619l-30.695496 54.236206l-73.979065 0z" fill-rule="evenodd"/></g></svg>